<?xml version="1.0" encoding="UTF-8"?>
<svg id="Layer_1" data-name="Layer 1" xmlns="http://www.w3.org/2000/svg" viewBox="0 0 524.52 124.8">
  <polyline points="22.08 12.48 27.6 12.48 27.6 19.32 22.08 19.32 22.08 12.48" style="fill: #182934; fill-rule: evenodd;"/>
  <path d="M14.95,9.17c.88-.05,1.8-.02,2.78,.11v5.31c-2.53-.21-4.35,.27-5.65,1.58-1.69,1.66-2.08,4.9-2.08,7.31v1.38H27.6V60.24h-5.46V30.45H10v29.79H4.55V30.45H0v-5.59H4.55v-1.38c0-5.17,1.29-9.1,3.83-11.51,1.75-1.71,3.94-2.64,6.57-2.8Z" style="fill: #182934; fill-rule: evenodd;"/>
  <path d="M51.45,23.88c8.19,0,12.87,6.2,12.87,15.01v21.35h-5.46v-21.55c0-5.44-2.86-9.44-8.2-9.44-5.07,0-8.77,4-8.77,9.3v21.69h-5.53V24.78h5.33v3.85c2.28-2.96,5.72-4.75,9.76-4.75Z" style="fill: #182934; fill-rule: evenodd;"/>
  <path d="M85.44,38.88v4.99l-.61,.06c-7.23,.48-8.85,3.16-8.85,6.11,0,3.85,3.49,5.49,7.75,5.49l1.71-.1v5.358l-1.9,.172c-6.85,0-12.98-3.296-12.98-10.92,0-7.28,4.97-10.58,13.56-11.06l1.32-.1Z" style="fill: #182934; fill-rule: evenodd;"/>
  <path d="M85.44,24v5.36l-1.43,.14c-2.8,.56-5.5,2.18-5.94,6.02h-5.71c.34-6.16,4.61-10.43,11.41-11.41l1.67-.11Z" style="fill: #182934; fill-rule: evenodd;"/>
  <path d="M86.83,23.88c8.94,0,13.48,4.4,13.48,11v19.53c0,1.79,.45,4.402,.97,5.777h-5.44c-.45-1.031-.78-2.407-.84-4.057-1.8,2.321-4.44,3.906-7.83,4.554l-1.73,.156v-5.36l.4-.02c4.85-.59,8.98-3.29,9.09-8.89v-5.43c-1.65,1.55-4.29,2.21-7.17,2.55l-2.32,.21v-4.99l1.48-.11c5.98-.62,8.01-2.14,8.01-4.6,0-2.82-2.53-4.96-8.16-4.96l-1.33,.13v-5.39l1.39-.1Z" style="fill: #182934; fill-rule: evenodd;"/>
  <path d="M123.93,23.88c8.19,0,12.87,6.2,12.87,15.01v21.35h-5.46v-21.55c0-5.44-2.86-9.44-8.2-9.44-5.07,0-8.77,4-8.77,9.3v21.69h-5.53V24.78h5.33v3.85c2.28-2.96,5.72-4.75,9.76-4.75Z" style="fill: #182934; fill-rule: evenodd;"/>
  <path d="M159.76,23.88c7.46,0,13.29,4.67,15.56,11.81h-5.9c-1.88-3.85-5.31-6.45-9.66-6.45-6.15,0-11.21,5.97-11.21,13.25s5.06,13.11,11.21,13.11c4.41,0,7.85-2.61,9.66-6.45h5.9c-2.2,7.14-8.1,11.81-15.56,11.81-9.2,0-16.72-8.24-16.72-18.47s7.52-18.61,16.72-18.61Z" style="fill: #182934; fill-rule: evenodd;"/>
  <polyline points="181.44 24.72 186.96 24.72 186.96 60.24 181.44 60.24 181.44 24.72" style="fill: #182934; fill-rule: evenodd;"/>
  <polyline points="181.44 12.48 186.96 12.48 186.96 19.32 181.44 19.32 181.44 12.48" style="fill: #182934; fill-rule: evenodd;"/>
  <path d="M208.56,38.88v4.99l-.62,.06c-7.29,.48-8.91,3.16-8.91,6.11,0,3.85,3.51,5.49,7.81,5.49l1.72-.1v5.358l-1.92,.172c-6.9,0-13.08-3.296-13.08-10.92,0-7.28,5.01-10.58,13.67-11.06l1.33-.1Z" style="fill: #182934; fill-rule: evenodd;"/>
  <path d="M208.56,24v5.36l-1.43,.14c-2.8,.56-5.5,2.18-5.94,6.02h-5.71c.34-6.16,4.61-10.43,11.41-11.41l1.67-.11Z" style="fill: #182934; fill-rule: evenodd;"/>
  <path d="M209.95,23.88c8.94,0,13.48,4.4,13.48,11v19.53c0,1.79,.45,4.402,.97,5.777h-5.44c-.45-1.031-.78-2.407-.84-4.057-1.8,2.321-4.44,3.906-7.83,4.554l-1.73,.156v-5.36l.4-.02c4.85-.59,8.98-3.29,9.09-8.89v-5.43c-1.65,1.55-4.29,2.21-7.17,2.55l-2.32,.21v-4.99l1.48-.11c5.98-.62,8.01-2.14,8.01-4.6,0-2.82-2.53-4.96-8.16-4.96l-1.33,.13v-5.39l1.39-.1Z" style="fill: #182934; fill-rule: evenodd;"/>
  <polyline points="232.08 9 237.6 9 237.6 60.24 232.08 60.24 232.08 9" style="fill: #182934; fill-rule: evenodd;"/>
  <path d="M286.98,72.6c7.42,0,12.3,3.514,13.73,9.921h-2.47c-1.37-4.754-5.21-7.507-11.2-7.507-6.06,0-10.35,3.098-10.29,7.232,.07,4.064,3.58,5.371,11.01,6.475,6.96,1.101,13.41,3.031,13.73,10.196,.07,2.479-.71,4.96-2.34,6.752-2.41,2.617-6.38,4.131-11.07,4.131-8.46,0-14.45-3.925-15.56-11.16h2.41c1.17,5.718,5.99,8.749,13.09,8.749,4.03,0,7.42-1.378,9.37-3.512,1.17-1.31,1.76-3.033,1.63-4.892-.13-4.341-3.45-6.543-11.65-7.785-5.8-.894-12.96-1.927-13.09-8.954,0-4.821,4.3-9.646,12.7-9.646Z" style="fill: #182934; fill-rule: evenodd;"/>
  <polyline points="307.68 73.56 310.08 73.56 310.08 108.96 307.68 108.96 307.68 73.56" style="fill: #182934; fill-rule: evenodd;"/>
  <polyline points="307.68 61.2 310.08 61.2 310.08 67.56 307.68 67.56 307.68 61.2" style="fill: #182934; fill-rule: evenodd;"/>
  <path d="M331.02,72.6c5.45,0,9.8,3.1,11.68,7.853,1.75-4.753,5.91-7.853,11.3-7.853,7.4,0,12.72,5.717,12.72,13.499v22.861h-2.4v-22.861c0-6.337-4.35-10.88-10.32-10.88-5.91,0-10.26,4.543-10.26,10.88v22.861h-2.4v-22.861c0-6.337-4.35-10.88-10.32-10.88-5.91,0-10.26,4.543-10.26,10.88v22.861h-2.4v-35.463h2.4v4.82c2.08-3.511,5.71-5.717,10.26-5.717Z" style="fill: #182934; fill-rule: evenodd;"/>
  <path d="M391.32,72.6v2.623l-2.87,.328c-6.49,1.508-11.41,8.024-11.41,15.806,0,7.663,4.92,14.11,11.41,15.601l2.87,.325v2.552l-2.27-.173c-5.19-.803-9.57-4.317-12.01-9.204v24.342h-2.4v-51.302h2.4v8.619c2.44-4.947,6.82-8.523,12.01-9.34l2.27-.177Z" style="fill: #182934; fill-rule: evenodd;"/>
  <path d="M391.32,72.6c9.25,0,16.8,8.404,16.8,18.739,0,10.195-7.55,18.461-16.8,18.461v-2.55c7.95,0,14.33-7.162,14.33-15.911,0-8.886-6.38-16.119-14.33-16.119v-2.62Z" style="fill: #182934; fill-rule: evenodd;"/>
  <polyline points="414 57.72 416.52 57.72 416.52 108.96 414 108.96 414 57.72" style="fill: #182934; fill-rule: evenodd;"/>
  <polyline points="424.92 73.56 427.32 73.56 427.32 108.96 424.92 108.96 424.92 73.56" style="fill: #182934; fill-rule: evenodd;"/>
  <polyline points="424.92 61.2 427.32 61.2 427.32 67.56 424.92 67.56 424.92 61.2" style="fill: #182934; fill-rule: evenodd;"/>
  <path d="M449.95,72.6c7.38,0,13.14,4.686,15.41,11.851h-2.59c-2.13-5.651-6.86-9.231-12.82-9.231-7.83,0-14.24,7.233-14.24,16.119,0,8.749,6.41,15.911,14.24,15.911,6.15,0,10.88-3.579,12.88-9.298h2.53c-2.2,7.165-8.03,11.848-15.41,11.848-9.19,0-16.63-8.266-16.63-18.461,0-10.335,7.44-18.739,16.63-18.739Z" style="fill: #182934; fill-rule: evenodd;"/>
  <polyline points="471.6 73.56 474 73.56 474 108.96 471.6 108.96 471.6 73.56" style="fill: #182934; fill-rule: evenodd;"/>
  <polyline points="471.6 61.2 474 61.2 474 67.56 471.6 67.56 471.6 61.2" style="fill: #182934; fill-rule: evenodd;"/>
  <path d="M482.86,66h2.4v7.566h9.02v2.546h-9.02v20.637c0,6.053,2.66,10.181,9.02,9.904v2.34c-7.2,.687-11.42-4.335-11.42-12.244v-20.637h-4.54v-2.546h4.54v-7.566Z" style="fill: #182934; fill-rule: evenodd;"/>
  <path d="M496.8,73.56h2.6l11.23,31.812,11.36-31.812h2.53l-14.41,40.625c-2.4,6.747-7.08,9.295-12.98,8.124v-2.41c5.19,.826,8.69-.894,10.71-6.61l1.55-4.337-12.59-35.392Z" style="fill: #182934; fill-rule: evenodd;"/>
  <polygon points="279.67 0 281.28 0 238.25 124.2 236.64 124.2 279.67 0" style="fill: #182934; fill-rule: evenodd;"/>
</svg>