<svg xmlns="http://www.w3.org/2000/svg" viewBox="0 0 118 85" fill="#fff"><path d="M84.2 54c-1.1.5-2.4.8-3.6.8-6.8 0-11.4-5.1-11.4-11.5s4.6-11.5 11.2-11.5c1.2 0 2.5.3 3.6.8l.7 5.1c-1.3-1-2.8-1.6-4.5-1.6-3.9 0-6.6 3.5-6.6 7.2-.1 3.8 2.9 7 6.7 7.2h.1c1.6-.1 3.1-.7 4.3-1.8l-.5 5.3zm33.8-2.5c-1.4 1.6-5.7 3.3-9 3.3-6.4.1-11.6-5-11.7-11.3s5-11.6 11.4-11.7h.3c3.2-.1 6.4 1.1 8.7 3.3l-2.6 3.3c-1.9-1.4-3.3-2.6-6.3-2.6-4.1 0-7.1 3.5-7.1 7.7.1 4 3.3 7.1 7.3 7.2 1.7-.1 3.3-.6 4.8-1.5v-3.8h-6.4l1.4-4.1h9.3l-.1 10.2zM55.8 45c-.1-.5-.2-1.1-.2-1.7 0-3.7 2.7-7.2 6.6-7.2 1.6 0 3.2.5 4.5 1.6l-.7-5.1c-1.1-.5-2.3-.8-3.6-.8-6.6 0-11.2 5.2-11.2 11.5 0 1.4.2 2.8.7 4.1l3.9-2.4zm6.7 5.5c-2.9 0-5.4-1.9-6.3-4.6l-3.6 3c1.9 3.7 5.8 6 10 5.9 1.3 0 2.5-.3 3.6-.8l.6-5.3c-1.2 1-2.7 1.7-4.3 1.8"/><path d="M0 40.9C12.4 27.7 56-2.4 61.2.1c2.2 1.1 2.1 3.4-.4 10L41.5 53l19.7-11.4-19 12.8c-3.7 2.1-4.2 1-3.2-1.7C40.1 50 60 7.5 57.6 5.5 54.8 3.1 8.4 33.6 0 40.9M52.1 13c1 2.2-30.3 72-30.3 72l25.7-66.4c-.9-2.2-22.6 9.1-22.6 9.1S51.3 11.3 52.1 13m37 41.5V32.3l4.2-.5v22.5l-4.2.2z"/><path d="M91.2 29.8a2.69 2.69 0 1 0 0-5.4 2.69 2.69 0 1 0 0 5.4"/></svg>