<?xml version="1.0" encoding="UTF-8"?>
<svg width="236px" height="71px" viewBox="0 0 236 71" version="1.1" xmlns="http://www.w3.org/2000/svg" xmlns:xlink="http://www.w3.org/1999/xlink">
    <title>Group 29 Copy</title>
    <defs>
        <polygon id="path-1" points="0 0 61.398394 0 61.398394 35.5101771 0 35.5101771"></polygon>
        <polygon id="path-3" points="0 0 43.1708103 0 43.1708103 30.7921687 0 30.7921687"></polygon>
    </defs>
    <g id="Page-1" stroke="none" stroke-width="1" fill="none" fill-rule="evenodd">
        <g id="Syntro8" transform="translate(-60.000000, -25.000000)">
            <g id="Group-29-Copy" transform="translate(60.000000, 25.000000)">
                <path d="M161.603404,26.9289545 L169.718052,26.9289545 L169.718052,45.9301146 L171.166082,45.9301146 L171.166082,26.9289545 L179.250495,26.9289545 L179.250495,25.4823191 L161.603404,25.4823191 L161.603404,26.9289545 Z M198.8638,36.8549198 C199.481993,36.7814251 200.116931,36.599084 200.766754,36.3037099 C201.711021,35.9055363 202.528765,35.2505965 203.220917,34.3374952 C203.912604,33.4262544 204.25868,32.3926777 204.25868,31.2390906 C204.25868,30.5050743 204.097271,29.7924552 203.771662,29.100303 C203.445588,28.408616 202.978571,27.7890281 202.371542,27.2447955 C201.742651,26.6777702 201.007239,26.2423842 200.169493,25.9386372 C199.330352,25.6348903 198.428414,25.4823191 197.464146,25.4823191 L190.323535,25.4823191 L190.323535,45.9301146 L191.739005,45.9301146 L191.739005,26.8987194 L197.464146,26.8987194 C198.533074,26.8987194 199.477806,27.1080396 200.296016,27.5276104 C201.11283,27.946716 201.742651,28.486297 202.183154,29.1477489 C202.624122,29.8078054 202.84321,30.5050743 202.84321,31.2390906 C202.84321,32.056835 202.580397,32.8066666 202.057097,33.4881202 C201.532401,34.1705041 200.914208,34.67985 200.201589,35.0138321 C199.23546,35.4134011 197.977213,35.6120228 196.426383,35.6120228 L193.908958,35.6120228 L202.402708,45.9301146 L204.290311,45.9301146 L196.89712,36.9646966 C197.590203,36.9646966 198.245143,36.9288796 198.8638,36.8549198 L198.8638,36.8549198 Z M233.357914,40.2212542 C232.561101,41.5934646 231.481474,42.6856511 230.117171,43.4913014 C228.754729,44.2992775 227.265765,44.7030329 225.650743,44.7030329 C224.035721,44.7030329 222.546756,44.2992775 221.184314,43.4913014 C219.820477,42.6856511 218.735267,41.5934646 217.927757,40.2212542 C217.11978,38.8476484 216.716025,37.3419382 216.716025,35.7069146 C216.716025,34.0709607 217.11978,32.5661809 217.927757,31.1916447 C218.735267,29.818504 219.820477,28.7281782 221.184314,27.9206672 C222.546756,27.1131563 224.035721,26.7094008 225.650743,26.7094008 C227.265765,26.7094008 228.754729,27.1131563 230.117171,27.9206672 C231.481474,28.7281782 232.561101,29.818504 233.357914,31.1916447 C234.155191,32.5661809 234.553365,34.0709607 234.553365,35.7069146 C234.553365,37.3419382 234.155191,38.8476484 233.357914,40.2212542 L233.357914,40.2212542 Z M234.616626,30.468327 C233.693291,28.8635386 232.434579,27.5959883 230.840954,26.6619549 C229.246399,25.729317 227.516949,25.2627655 225.650743,25.2627655 C223.784537,25.2627655 222.053691,25.729317 220.459601,26.6619549 C218.865511,27.5959883 217.608194,28.8635386 216.68486,30.468327 C215.761525,32.0731154 215.30102,33.8193113 215.30102,35.7069146 C215.30102,37.5945179 215.761525,39.3397835 216.68486,40.9441068 C217.608194,42.5488952 218.865511,43.8178409 220.459601,44.7500137 C222.053691,45.6840471 223.784537,46.1496683 225.650743,46.1496683 C227.516949,46.1496683 229.246399,45.6840471 230.840954,44.7500137 C232.434579,43.8178409 233.693291,42.5488952 234.616626,40.9441068 C235.538565,39.3397835 236,37.5945179 236,35.7069146 C236,33.8193113 235.538565,32.0731154 234.616626,30.468327 L234.616626,30.468327 Z M114.291915,37.3098424 L106.207038,25.4823191 L104.507823,25.4823191 L113.567202,38.8518348 L113.567202,45.9301146 L114.983602,45.9301146 L114.983602,38.8518348 L124.042982,25.4823191 L122.344697,25.4823191 L114.291915,37.3098424 Z M92.2393315,36.0213601 C91.8620899,35.8120399 91.4006551,35.6329548 90.8545619,35.4859655 C90.3098641,35.3399065 89.743304,35.2240826 89.1567422,35.1398894 C88.568785,35.0570916 88.2017768,35.004529 88.0557178,34.9822015 C87.2165763,34.8780065 86.5300059,34.777998 85.9950764,34.6835713 C85.4596818,34.5900749 84.9731286,34.4379689 84.5326258,34.2272532 C83.8195415,33.8723391 83.2208857,33.3736918 82.7399143,32.7331719 C82.2570823,32.0940475 82.014736,31.4493412 82.014736,30.7985878 C82.014736,30.2748221 82.1621905,29.7659414 82.4557039,29.2728759 C82.7492174,28.7807408 83.168323,28.3351213 83.7144163,27.9364825 C84.2586488,27.5169118 84.9042855,27.1973496 85.6490003,26.9764004 C86.3937152,26.7568468 87.1640136,26.6461396 87.9612911,26.6461396 C88.7581035,26.6461396 89.5237504,26.7568468 90.2577666,26.9764004 C90.9913177,27.1973496 91.6411408,27.5169118 92.208166,27.9364825 C92.7314666,28.3351213 93.1352221,28.7756241 93.4194324,29.2570606 C93.7017821,29.7394275 93.853423,30.2431915 93.8757505,30.7669572 L95.2279592,30.0120089 C95.0172435,28.7965561 94.3046244,27.7271623 93.0891716,26.8038275 C91.6202087,25.7558309 89.9116905,25.2311349 87.9612911,25.2311349 C86.9956271,25.2311349 86.0736878,25.3678907 85.1926822,25.640007 C84.3112115,25.9121233 83.5250977,26.3000635 82.8329455,26.8038275 C82.1203264,27.3289887 81.5691165,27.9313658 81.1825718,28.6123543 C80.7932362,29.2942731 80.5997312,30.0236378 80.5997312,30.7985878 C80.5997312,31.7637867 80.8932447,32.6606075 81.4807368,33.4881202 C82.0677638,34.3165631 82.8752747,34.9822015 83.9037348,35.4859655 C84.5530926,35.800411 85.3345548,36.0315936 86.2462607,36.1776526 C87.1588969,36.3255722 87.6887097,36.4093003 87.8347687,36.4302323 C89.6167816,36.6395525 90.8545619,36.9232977 91.5476444,37.2800724 C92.2816607,37.678246 92.8524072,38.1601477 93.2617445,38.7262426 C93.6706167,39.2928027 93.8757505,39.9012269 93.8757505,40.5510499 C93.8757505,41.6623077 93.3194239,42.6275066 92.208166,43.4443206 C91.054579,44.3043942 89.6381787,44.7341984 87.9612911,44.7341984 C87.1430816,44.7341984 86.3672013,44.6244216 85.633185,44.4044027 C84.8991688,44.1848491 84.2586488,43.865752 83.7144163,43.4443206 C82.6450225,42.7116998 82.0779972,41.7669678 82.014736,40.613846 L80.6629925,41.3687943 C80.9141767,42.6484386 81.6374944,43.7289961 82.8329455,44.6081411 C83.5250977,45.1119051 84.3112115,45.5003104 85.1926822,45.7724267 C86.0736878,46.044543 86.9956271,46.1812989 87.9612911,46.1812989 C89.9116905,46.1812989 91.6202087,45.6579983 93.0891716,44.6081411 C93.8008604,44.0848405 94.3464884,43.4717648 94.7241952,42.7684489 C95.1014367,42.0660632 95.2907553,41.3273954 95.2907553,40.5510499 C95.2907553,39.6500426 95.0237557,38.8053192 94.488361,38.0192054 C93.9529664,37.2321614 93.2036,36.5669882 92.2393315,36.0213601 L92.2393315,36.0213601 Z M149.114894,42.1553732 L134.958334,25.2311349 L134.958334,45.9301146 L136.374734,45.9301146 L136.374734,29.3203218 L150.530364,46.2761908 L150.530364,25.4823191 L149.114894,25.4823191 L149.114894,42.1553732 Z" id="Fill-1" fill="#60D1E0"></path>
                <polygon id="Fill-3" fill="#FFFFFF" points="136.001168 61.1935597 132.364577 61.1935597 132.364577 64.0533392 131.929191 64.0533392 131.929191 60.7577085 131.929191 57.8974638 132.364577 57.8974638 132.364577 60.7577085 136.001168 60.7577085 136.001168 57.8974638 136.427251 57.8974638 136.427251 60.9660984 136.427251 64.0533392 136.001168 64.0533392"></polygon>
                <polygon id="Fill-5" fill="#FFFFFF" points="141.161935 64.0539904 141.161935 57.8976499 145.149718 57.8976499 145.149718 58.333036 141.588018 58.333036 141.588018 60.7583597 144.363139 60.7583597 144.363139 61.1937458 141.588018 61.1937458 141.588018 63.6097664 145.149718 63.6097664 145.149718 64.0539904"></polygon>
                <path d="M152.262559,58.8736869 L150.785223,62.0651226 L153.673842,62.0651226 L152.262559,58.8736869 Z M150.586601,62.4912056 L149.856771,64.05413 L149.383242,64.05413 L152.282095,57.821969 L155.019539,64.05413 L154.555313,64.05413 L153.863161,62.4912056 L150.586601,62.4912056 Z" id="Fill-7" fill="#FFFFFF"></path>
                <polygon id="Fill-9" fill="#FFFFFF" points="159.26218 64.0539904 159.26218 57.8976499 159.688263 57.8976499 159.688263 63.6279075 163.146234 63.6279075 163.146234 64.0539904"></polygon>
                <polygon id="Fill-11" fill="#FFFFFF" points="171.783205 57.8975104 171.783205 58.3333616 169.348578 58.3333616 169.348578 64.0533857 168.913192 64.0533857 168.913192 58.3333616 166.469727 58.3333616 166.469727 57.8975104"></polygon>
                <polygon id="Fill-13" fill="#FFFFFF" points="180.146478 61.1935597 176.510353 61.1935597 176.510353 64.0533392 176.074502 64.0533392 176.074502 60.7577085 176.074502 57.8974638 176.510353 57.8974638 176.510353 60.7577085 180.146478 60.7577085 180.146478 57.8974638 180.572561 57.8974638 180.572561 60.9660984 180.572561 64.0533392 180.146478 64.0533392"></polygon>
                <path d="M64.9915125,16.9394489 C63.5718562,15.5197926 61.276311,15.5137456 59.8631669,16.9268897 C59.1742707,17.6157858 58.8277295,18.5070248 58.8049368,19.4043109 L50.6879635,19.7257337 L51.6429289,13.4935728 C52.9425749,13.7712709 54.349672,13.4098447 55.3483621,12.4111546 C56.9224502,10.8366013 56.9164032,8.30057045 55.3344074,6.71857467 C53.7738088,5.15797607 51.2303354,5.14448654 49.6557821,6.71857467 C48.0942532,8.28056874 48.0798334,10.8519515 49.640432,12.4130152 C50.0255812,12.7976993 50.4702704,13.0837703 50.942869,13.2800661 L49.9506911,19.7550386 L41.4546156,20.0913464 C41.3490251,19.231738 40.9848079,18.3991086 40.3275424,17.741378 C38.9227711,16.3370718 36.7007206,16.2138054 35.1210506,17.3478559 L28.3976848,9.56951619 C30.0875968,7.8447175 30.0545707,5.0993664 28.3553556,3.40015129 C26.6463722,1.69116791 23.9000908,1.6902376 22.1776179,3.41271051 C20.4811937,5.10913468 20.4681693,7.86890562 22.1776179,9.57835416 C23.7224012,11.1236026 26.1374915,11.2687313 27.8418233,10.0337419 L34.5689103,17.8167332 C33.0594789,19.3815182 33.07762,21.9031293 34.6214729,23.4474474 C36.1964914,25.0224659 38.7539194,25.0224659 40.3140529,23.4623324 C41.0466737,22.7297116 41.4267062,21.7793978 41.4806643,20.8155944 L49.8385885,20.4848684 L48.7115153,27.8403813 L49.4273905,27.9506233 L50.5758608,20.4555636 L58.8565691,20.1276286 C58.9816961,20.8379219 59.3138175,21.5189104 59.8631669,22.0677945 C61.276311,23.4814038 63.5783684,23.4958236 65.005002,22.0687248 C66.4186113,20.6555807 66.4051218,18.3530582 64.9915125,16.9394489" id="Fill-15" fill="#60D1E0"></path>
                <g id="Group-19" transform="translate(0.000000, 35.487989)">
                    <mask id="mask-2" fill="white">
                        <use xlink:href="#path-1"></use>
                    </mask>
                    <g id="Clip-18"></g>
                    <path d="M60.4217263,20.7337504 C59.1025437,19.4145678 56.9432892,19.4345695 55.6515508,20.7263079 C55.4101348,20.9677239 55.2273285,21.2435615 55.0733618,21.5305627 L44.3891921,16.8362077 C44.7980643,15.5663317 44.5175752,14.1159751 43.5100472,13.108447 C42.0764362,11.6753012 39.7348405,11.6753012 38.3077417,13.1028651 C37.1257802,14.2848267 36.9406481,16.0580016 37.6993176,17.4502137 L29.6837483,21.5780087 L28.6120287,17.6009243 C29.0799757,17.4236998 29.5200133,17.1534442 29.8963246,16.7766678 C31.3359826,15.3370097 31.349007,13.0084385 29.9019065,11.5608728 C28.4696909,10.1286573 26.1406545,10.1416816 24.7009965,11.5808745 C24.460976,11.8213602 24.276309,12.0925462 24.1172256,12.3739656 L15.9030347,8.78528654 L20.312249,2.78291267 L19.7294085,2.35264331 L15.2229765,8.48851697 L8.47077105,5.53803205 C8.89871463,4.06674341 8.54612633,2.42520765 7.38556195,1.26510843 C5.7026273,-0.418291377 2.97076573,-0.429920279 1.26178234,1.27952826 C-0.42022199,2.9615326 -0.421152302,5.70502307 1.26178234,7.38888803 C2.9572762,9.08438189 5.70355762,9.0853122 7.38556195,7.40330787 C7.74140634,7.04746348 8.00421952,6.64091708 8.21121397,6.21529928 L14.783404,9.08717283 L11.033781,14.1917955 C9.49644018,13.263344 7.47161582,13.4680127 6.15382869,14.7857998 C4.6057893,16.3338392 4.59462556,18.8484729 6.15522416,20.4104669 C7.71721822,21.9715307 10.2453414,21.9733913 11.7933808,20.4253519 C13.3418854,18.8773125 13.3553749,16.3338392 11.7933808,14.7723103 C11.7375621,14.7155612 11.6719751,14.6769533 11.6138306,14.6253209 L15.4634622,9.38440755 L23.8255728,13.0377433 C23.4157703,14.3034329 23.6990503,15.7458819 24.7079738,16.7543403 C25.587584,17.6344155 26.7862911,17.9721188 27.912434,17.7874519 L29.0255524,21.9180377 L21.9542499,25.5597446 C21.8184244,25.349494 21.6607365,25.1494769 21.477465,24.9662054 C20.0578086,23.546084 17.7487739,23.5535265 16.3351647,24.9671358 C14.9099265,26.3919088 14.9164387,28.687454 16.336095,30.1066451 C17.7492391,31.5202544 20.0522268,31.5342091 21.477465,30.1080406 C22.5273222,29.0581834 22.7933915,27.5110743 22.2835804,26.2058464 L29.2185922,22.6339129 L30.9573456,29.0851624 C30.5424264,29.2493625 30.1521604,29.4958952 29.8153874,29.8326682 C28.5096944,31.137431 28.5031822,33.2306333 29.8084101,34.5358612 C31.1010788,35.8285299 33.2128873,35.8415543 34.5185804,34.5358612 C35.8238083,33.2306333 35.8117143,31.1174293 34.5185804,29.8252257 C33.7352576,29.0409726 32.6677244,28.7409469 31.6569403,28.9004954 L29.876788,22.294349 L38.1123762,18.053056 C38.1812193,18.1363189 38.2384335,18.2251637 38.3161145,18.3023796 C39.7492604,19.7359906 42.0703892,19.7443635 43.5100472,18.3037751 C43.7528586,18.061894 43.9389211,17.7860564 44.0998651,17.4990551 L54.8003152,22.1994572 C54.4714499,23.3456017 54.7333327,24.628037 55.6306188,25.525323 C56.942824,26.8370631 59.1025437,26.8161311 60.4217263,25.4964834 C61.7139298,24.2052101 61.7339315,22.0454905 60.4217263,20.7337504" id="Fill-17" fill="#60D1E0" mask="url(#mask-2)"></path>
                </g>
                <g id="Group-22" transform="translate(0.981130, 0.000000)">
                    <mask id="mask-4" fill="white">
                        <use xlink:href="#path-3"></use>
                    </mask>
                    <g id="Clip-21"></g>
                    <path d="M40.9742722,7.63158299 C39.483447,9.12659459 37.0437035,9.12054756 35.5389236,7.61716316 C34.049959,6.12959406 34.0569364,3.70380517 35.5514828,2.20879358 C36.294337,1.46500903 37.2716299,1.09288418 38.2489228,1.09288418 C39.2262157,1.09288418 40.2035086,1.46500903 40.9472932,2.2106542 C42.4506776,3.71264314 42.4618413,6.14494421 40.9742722,7.63158299 M26.3246471,27.8686628 C24.8003307,29.3934444 22.3205837,29.3962353 20.8018491,27.8747098 C19.2914874,26.3652784 19.3026511,23.8957648 20.8274327,22.3714484 C21.5516807,21.6458049 22.5229266,21.2457707 23.5611549,21.2443753 L23.5667368,21.2443753 C24.6035696,21.2443753 25.5752807,21.6444095 26.3023196,22.3714484 L26.3032499,22.3728439 C27.8238451,23.8920436 27.8336134,26.358301 26.3246471,27.8686628 M7.63467636,28.5887244 C6.14106023,30.0879224 3.6999212,30.0795496 2.19793226,28.5775606 C0.71036316,27.0881309 0.715945033,24.6609466 2.2123521,23.165935 C2.96171852,22.4151731 3.94505844,22.0407224 4.92746805,22.0407224 C5.90476095,22.0407224 6.87972806,22.4109867 7.62072167,23.1533758 C9.12410608,24.6553647 9.12968795,27.0937128 7.63467636,28.5887244 M41.7166613,1.44082091 C40.785884,0.51190425 39.5555462,-0.000232578033 38.2489228,-0.000232578033 C36.9422994,-0.000232578033 35.7114965,0.51190425 34.7821147,1.43942545 C33.853198,2.37020273 33.3396657,3.60333146 33.3354793,4.91181548 C33.3326884,6.22448589 33.8420343,7.45761462 34.7709509,8.38699644 C34.8723549,8.48793531 34.9891091,8.56189512 35.0970253,8.65260056 L26.1823093,20.912719 C25.4054987,20.4284915 24.5105384,20.1582358 23.5667368,20.1582358 L23.5597594,20.1582358 C22.2317389,20.1596313 20.9888418,20.6726985 20.0580646,21.6034757 C19.1254266,22.5365788 18.6491068,23.7478452 18.6058473,24.9684147 L9.78323222,25.321003 C9.65717493,24.2134664 9.18783246,23.1831457 8.39008981,22.3840076 C7.46349892,21.4592774 6.23595207,20.9499315 4.92932868,20.9499315 L4.91490884,20.9499315 C3.60688998,20.9541179 2.37376125,21.4676502 1.44298396,22.397032 C-0.474854495,24.3162659 -0.482296992,27.4318812 1.42856413,29.3455333 C2.35934141,30.27445 3.5971217,30.7893777 4.91490884,30.7921687 L4.92932868,30.7921687 C6.24432487,30.7921687 7.47791876,30.2828228 8.40404449,29.3580925 C9.29156226,28.4710399 9.7813716,27.2983815 9.82137502,26.0443207 L18.6416643,25.6926627 C18.7602791,26.7722899 19.2091547,27.8198214 20.032481,28.6436128 C21.004192,29.6139283 22.2801151,30.0990861 23.5569685,30.0990861 C24.837078,30.0990861 26.1167223,29.6111374 27.0926197,28.6366355 C29.0258084,26.7020514 29.0160401,23.5482933 27.0698271,21.6034757 C26.9744701,21.5081187 26.8628326,21.4360196 26.7609635,21.3495005 L35.6766098,9.08798664 C36.4706312,9.57826113 37.3683824,9.83502728 38.27032,9.83502728 C39.5290323,9.83502728 40.785884,9.35684684 41.7436403,8.40095113 C42.6711615,7.47156931 43.1777165,6.23564964 43.1708103,4.91879282 C43.1623663,3.60658756 42.6460431,2.3715982 41.7166613,1.44082091" id="Fill-20" fill="#FFFFFF" mask="url(#mask-4)"></path>
                </g>
                <path d="M69.0759549,34.7523213 C67.9702789,35.8607883 66.1724507,35.8677656 65.0649141,34.7648806 C64.5346362,34.2346026 64.242053,33.5247745 64.2448242,32.7651746 C64.2476349,32.0055748 64.543009,31.2929557 65.0793339,30.7566307 C65.6096119,30.2277483 66.3110672,29.9365606 67.0562472,29.9365606 L67.0706671,29.9365606 C67.8200335,29.9393515 68.5270707,30.2365863 69.0606047,30.7696551 L69.0606047,30.7710506 C70.1620943,31.8725401 70.1695368,33.6587394 69.0759549,34.7523213 M52.8173549,43.7177394 C51.589808,44.9452862 49.5970795,44.9522636 48.3774402,43.7302986 C47.7876224,43.1418761 47.4638737,42.3511108 47.4666468,41.5059223 C47.4680601,40.6611988 47.7936694,39.871829 48.3834873,39.2852672 C48.9914463,38.6759128 49.7933753,38.3698401 50.5939089,38.3698401 C51.3986289,38.3698401 52.2033489,38.6773082 52.8154943,39.2903839 C54.0374593,40.5109534 54.0374593,42.4971698 52.8173549,43.7177394 M48.1202089,68.091452 C47.5857446,68.6249861 46.8754513,68.9189647 46.120503,68.9189647 L46.1191075,68.9189647 C45.3636941,68.9189647 44.6552614,68.6249861 44.1221926,68.091452 C43.0202378,66.9918231 43.0202378,65.1981813 44.1221926,64.0962266 C44.674798,63.5445515 45.399046,63.268714 46.123294,63.268714 C46.8456813,63.268714 47.5685338,63.5445515 48.1188135,64.0948311 C49.2207682,65.1953904 49.2207682,66.9899625 48.1202089,68.091452 M69.8299728,30.0030779 L69.8299728,30.0016824 C69.0917702,29.2648752 68.1144773,28.8546076 67.0762489,28.8504212 L67.0562472,28.8504212 C66.021275,28.8504212 65.046773,29.2532463 64.3113613,29.9872626 C63.5717631,30.7287214 63.1614955,31.7143871 63.1587045,32.7623837 C63.1573091,33.2903358 63.2596434,33.8015423 63.4545438,34.2732106 L54.1416542,39.2150286 C53.983036,38.9698914 53.7997645,38.7359179 53.5853276,38.5219461 C51.9358841,36.8766891 49.258911,36.8706421 47.6155146,38.5154339 C46.8219584,39.3089902 46.3833162,40.3686157 46.3805253,41.5026662 C46.3777343,42.6399728 46.8135856,43.7033195 47.6085373,44.4996667 C48.1727716,45.0634359 48.8616677,45.4178848 49.5859157,45.5941789 L46.9670871,62.2835134 C45.706049,62.0062804 44.3343037,62.3491004 43.3542199,63.3287191 C41.8294383,64.8539658 41.8294383,67.3360386 43.3542199,68.8598899 C44.0910271,69.5980925 45.0725064,70.0055693 46.1177121,70.0055693 L46.120503,70.0055693 C47.1657087,70.0055693 48.1485835,69.599488 48.8881816,68.8598899 C50.4129632,67.3332477 50.4129632,64.85164 48.8881816,63.325463 C48.5267553,62.9645019 48.1090452,62.6956417 47.6657515,62.505858 L50.3027212,45.7006997 C50.3966827,45.7067467 50.4897139,45.7272136 50.5841406,45.7272136 C51.6688846,45.7272136 52.7564194,45.3146201 53.5853276,44.4866423 C54.8347368,43.2363028 55.1282502,41.391959 54.477962,39.8555485 L63.7945729,34.912335 C63.9397016,35.1337493 64.1057623,35.3430695 64.2974066,35.5342487 C65.0579368,36.2938485 66.0580223,36.6738811 67.0595033,36.6738811 C68.066101,36.6738811 69.0759549,36.2896621 69.845323,35.520294 C71.3617318,34.0024898 71.3542893,31.5273943 69.8299728,30.0030779" id="Fill-23" fill="#FFFFFF"></path>
                <path d="M22.8567457,35.2120351 C21.8961985,34.2514878 20.5607354,33.879363 19.3057443,34.1012424 L14.9751414,18.4036206 C15.6175219,18.1756942 16.2240854,17.8193846 16.7394783,17.3039917 C18.5707977,15.4726723 18.5563779,12.4724157 16.7124993,10.6280719 C14.8695509,8.78512352 11.8688291,8.77070368 10.0375097,10.6020231 C8.17967639,12.4593913 8.19456138,15.4601131 10.0375097,17.3035266 C11.1878407,18.4533923 12.7875124,18.890639 14.279733,18.607359 L18.6075451,34.2956776 C18.0805232,34.4915083 17.5832714,34.7924643 17.1571885,35.2185473 C15.5956595,36.7800762 15.6165916,39.3305269 17.1771902,40.8915906 C18.7526738,42.4666091 21.2961471,42.4800986 22.857676,40.9190349 C24.4457188,39.3305269 24.4322293,36.7870535 22.8567457,35.2120351" id="Fill-25" fill="#60D1E0"></path>
                <path d="M67.8712472,44.3434673 C66.6925417,43.1647618 64.8826194,43.0368439 63.5597156,43.9732031 L51.7387045,30.4078567 C53.105333,28.9640123 53.0890526,26.7061448 51.6670705,25.2841627 C50.2343898,23.8519471 47.9179126,23.8519471 46.4787197,25.29114 C45.0390617,26.7312632 45.0246418,29.0612299 46.4568574,30.4939106 C47.7527822,31.7903005 49.7529532,31.9047289 51.191681,30.8818508 L63.0182739,44.452779 C61.8125894,45.7663797 61.823288,47.8228347 63.1071187,49.1066654 C64.419324,50.4193358 66.5664844,50.4132888 67.8717123,49.1066654 C69.2034541,47.7763191 69.1834524,45.6547422 67.8712472,44.3434673" id="Fill-27" fill="#60D1E0"></path>
            </g>
        </g>
    </g>
</svg>