<svg width="128" height="32" viewBox="0 0 128 32" fill="none" xmlns="http://www.w3.org/2000/svg">
<g id="MyHome Logo">
<path id="Vector" d="M123.708 11.1008C124.517 11.969 124.89 13.0233 124.89 14.3256H115.063C115.187 13.0233 115.685 11.969 116.618 11.1008C117.551 10.1706 118.733 9.73649 120.163 9.73649C121.594 9.73649 122.775 10.1706 123.708 11.1008ZM128 14.6977C128 12.4032 127.316 10.6047 125.885 9.24037C124.455 7.81401 122.464 7.06982 119.914 7.06982C117.738 7.06982 115.872 7.87603 114.255 9.42641C112.451 11.2249 111.58 13.5815 111.58 16.4962C111.58 19.3489 112.451 21.5814 114.192 23.2559C115.747 24.7442 117.675 25.5504 119.852 25.5504C121.407 25.5504 122.775 25.3024 124.082 24.8683C125.077 24.4962 125.823 24.1241 126.321 23.628L125.014 21.3334C123.833 22.3877 122.278 22.9458 120.536 22.9458C118.981 22.9458 117.675 22.4497 116.68 21.4574C115.561 20.3411 115.001 18.7287 115.001 16.6822H127.813C127.938 16.0621 128 15.3799 128 14.6977Z" fill="#592E92"/>
<path id="Vector_2" fill-rule="evenodd" clip-rule="evenodd" d="M68.7891 12.8993C68.7891 14.0776 69.4733 15.1319 70.5306 15.628L69.2245 21.6435H74.8222L73.3295 15.566C74.3246 15.0698 74.9466 14.0156 74.9466 12.8373C74.9466 11.1629 73.5783 9.79852 71.899 9.79852C70.1575 9.79852 68.7891 11.1629 68.7891 12.8993ZM62.5073 16.0001C62.5073 10.9768 66.7367 6.88379 71.899 6.88379C77.0613 6.88379 81.2906 10.9768 81.2906 16.0001C81.2906 21.0233 77.0613 25.1163 71.899 25.1163C66.7367 25.1163 62.5073 21.0233 62.5073 16.0001Z" fill="#592E92"/>
<path id="Vector_3" d="M20.6492 25.0543V13.8295C20.6492 11.0388 19.4052 9.61247 16.9796 9.61247C16.2332 9.61247 15.4869 9.86053 14.8027 10.2946C14.1186 10.7908 13.6832 11.2869 13.4344 11.907V25.0543H10.3246V12.4032C10.3246 11.5349 10.0136 10.8528 9.32944 10.3567C8.64529 9.86053 7.77454 9.61247 6.7172 9.61247C6.09524 9.61247 5.41108 9.86053 4.66472 10.3567C3.91837 10.8528 3.4208 11.4109 3.10981 11.9691V25.0543H0V7.31789H2.05248L3.10981 9.3644C4.35374 7.752 5.84645 6.9458 7.65014 6.9458C10.2002 6.9458 12.0039 7.752 12.999 9.30239C13.3722 8.62022 13.9942 8.06208 14.9893 7.62797C15.9223 7.19386 16.9174 6.9458 17.9747 6.9458C19.8406 6.9458 21.2089 7.50394 22.2663 8.5582C23.2614 9.67448 23.759 11.1629 23.759 13.1473V25.0543H20.6492Z" fill="#EC008D"/>
<path id="Vector_4" d="M35.1409 28.0931C34.7055 29.2093 33.897 30.1396 32.5287 30.8838C31.2225 31.6279 29.7298 32 28.1127 32V29.1473C29.4188 29.1473 30.5384 28.8372 31.4713 28.2171C32.4043 27.5969 32.9018 26.8528 32.9018 25.9845C32.9018 24.9923 32.7152 24.0621 32.4043 23.1318C32.0311 22.2016 31.5957 21.0233 31.0981 19.5969L26.2468 7.25586H29.481L34.7055 20.9613L39.4324 7.25586H42.6666L35.1409 28.0931Z" fill="#EC008D"/>
<path id="Vector_5" d="M56.1633 25.0543V13.8915C56.1633 12.5891 55.8523 11.5349 55.1681 10.7287C54.484 9.98449 53.551 9.6124 52.3693 9.6124C51.623 9.6124 50.8144 9.86046 50.0681 10.2946C49.3217 10.7287 48.6997 11.2868 48.2644 11.845V25.0543H45.1545V0H48.2644V9.24031C48.6997 8.55814 49.3839 8.06201 50.3168 7.6279C51.2498 7.1938 52.2449 6.94574 53.2401 6.94574C55.106 6.94574 56.5987 7.56589 57.656 8.8062C58.7133 10.0465 59.2731 11.7209 59.2731 13.8915V25.0543H56.1633Z" fill="#592E92"/>
<path id="Vector_6" d="M105.112 25.1783V13.8915C105.112 11.1008 103.868 9.67448 101.442 9.67448C100.696 9.67448 99.9496 9.92254 99.2654 10.3566C98.5813 10.8528 98.1459 11.3489 97.8971 11.969V25.1163H94.7873V12.5272C94.7873 11.659 94.4763 10.9768 93.7922 10.4807C93.108 9.98455 92.2373 9.73649 91.1799 9.73649C90.558 9.73649 89.8738 9.98455 89.1274 10.4807C88.3811 10.9768 87.8835 11.5349 87.6347 12.0931V25.1783H84.5249V7.44192H86.5774L87.6347 9.48843C88.8786 7.87603 90.3714 7.06982 92.175 7.06982C94.7251 7.06982 96.5288 7.87603 97.5239 9.42641C97.8971 8.74424 98.5191 8.1861 99.5142 7.75199C100.447 7.31789 101.442 7.06982 102.5 7.06982C104.366 7.06982 105.734 7.62796 106.791 8.68223C107.786 9.79851 108.284 11.2869 108.284 13.2714V25.1783H105.112Z" fill="#592E92"/>
</g>
</svg>
