<?xml version="1.0" encoding="UTF-8" standalone="no"?>
<!-- Created with Inkscape (http://www.inkscape.org/) -->

<svg
   version="1.1"
   id="svg1"
   width="1400"
   height="600"
   viewBox="0 0 1400 600.00002"
   sodipodi:docname="Wilkinson_Sword_Logo_White_Negative_Digital.svg"
   xml:space="preserve"
   inkscape:version="1.3.2 (091e20e, 2023-11-25)"
   xmlns:inkscape="http://www.inkscape.org/namespaces/inkscape"
   xmlns:sodipodi="http://sodipodi.sourceforge.net/DTD/sodipodi-0.dtd"
   xmlns="http://www.w3.org/2000/svg"
   xmlns:svg="http://www.w3.org/2000/svg"><defs
     id="defs1" /><sodipodi:namedview
     id="namedview1"
     pagecolor="#ffffff"
     bordercolor="#000000"
     borderopacity="0.25"
     inkscape:showpageshadow="2"
     inkscape:pageopacity="0.0"
     inkscape:pagecheckerboard="0"
     inkscape:deskcolor="#d1d1d1"
     inkscape:zoom="0.21023374"
     inkscape:cx="794.35394"
     inkscape:cy="561.28003"
     inkscape:window-width="1872"
     inkscape:window-height="1345"
     inkscape:window-x="0"
     inkscape:window-y="25"
     inkscape:window-maximized="0"
     inkscape:current-layer="g1" /><g
     inkscape:groupmode="layer"
     inkscape:label="Image"
     id="g1"><path
       style="fill:#000000"
       id="path1"
       d="" /><path
       style="fill:#ffffff;stroke:none"
       d="m 248.25496,57.383056 c 1.11781,2.95336 3.29793,5.61968 4.92766,8.32 3.76687,6.24148 7.72281,12.37195 11.57679,18.560001 2.63844,4.23633 5.19449,10.52937 8.8968,13.87703 3.0493,2.757193 8.05277,4.527813 11.71875,6.361953 6.88461,3.44438 13.67058,7.13789 20.48,10.73086 23.33535,12.31289 46.74429,24.48696 70.08,36.80001 10.65289,5.62093 21.40535,11.07898 32,16.8089 4.95543,2.68008 10.59414,6.78352 16,8.33703 2.13828,0.61446 4.82953,0.20422 7.04,0.20422 h 13.76 v -0.32 c -11.63938,-5.43429 -22.87731,-11.99461 -34.24,-17.99015 -21.09926,-11.13297 -42.26102,-22.14719 -63.36,-33.28001 -14.70391,-7.75851 -29.53649,-15.28218 -44.16,-23.19109 -4.34184,-2.3482 -8.75414,-4.585243 -13.12,-6.888913 -2.07852,-1.09672 -4.60918,-1.92398 -6.34074,-3.555 -5.48461,-5.16625 -8.42332,-13.953441 -12.85926,-20.054841 6.02789,2.51039 11.8543,6.07383 17.6,9.181251 10.90418,5.89734 21.94422,11.61039 32.96,17.29601 31.76043,16.392663 63.6023,32.778993 95.04,49.781493 12.70921,6.8736 25.56003,13.51688 38.4,20.14399 5.25765,2.71367 10.96144,7.04117 16.63999,8.67304 4.66122,1.33954 11.15059,0.20422 16,0.20422 h 34.56 v -0.32 c -6.28679,-2.61758 -12.19035,-6.39484 -18.24,-9.51726 -12.52793,-6.4661 -24.97175,-13.09407 -37.44,-19.6729 -34.72578,-18.32304 -69.78452,-36.0707 -104.31999,-54.748593 -12.29617,-6.65016 -24.82426,-12.870081 -37.12,-19.520001 -6.56117,-3.54852 -13.70965,-8.57547 -20.8,-10.87758 -3.91379,-1.27078 -9.0207,-0.84125 -13.12,-1.23797 l -29.12,-2.77141 c -4.39383,-0.42523 -9.14441,-0.31164 -13.44,-1.33429 m 939.51984,0 -13.12,1.33429 -29.44,2.77164 -13.12,1.32422 -16.32,8.56711 -37.44,19.672891 -109.43999,57.459693 -37.4399,19.6729 -16.96,8.87726 v 0.32 h 34.2399 l 16,-0.15953 8.32,-4.22172 13.12,-6.8889 45.75999,-24.00001 90.88,-47.680003 42.56,-22.329841 c -2.0573,4.35015 -5.0835,8.38961 -7.6185,12.480001 -1.4934,2.40976 -2.8923,5.60328 -4.9657,7.55508 -3.3755,3.1775 -9.2081,5.16578 -13.3358,7.24414 -8.8069,4.434453 -17.5661,9.088443 -26.24,13.779533 -25.2208,13.64023 -50.9393,26.35984 -76.16,40 -14.9229,8.07078 -30.1,17.3811 -45.75999,23.90125 v 0.32 h 14.07999 c 2.1076,0 4.6757,0.39352 6.72,-0.15953 5.0335,-1.36172 10.1176,-5.16219 14.72,-7.59062 10.6533,-5.62118 21.297,-11.2829 32,-16.80711 33.2796,-17.17672 66.3972,-34.6954 99.52,-52.17259 5.3526,-2.824293 7.4296,-7.213203 10.5761,-12.230153 4.1438,-6.60703 8.2941,-13.210941 12.4024,-19.840001 1.74,-2.8075 6.4679,-7.89789 6.4615,-11.2 M 540.09495,170.98306 c 0.72985,3.61727 5.03821,5.48922 8.32,6.14149 7.44621,1.47992 16.9491,-1.41649 17.19703,-10.30149 0.15133,-5.42359 -3.975,-8.51984 -8.55703,-10.30047 -1.6773,-0.65179 -6.31105,-1.79508 -5.54816,-4.41461 1.42902,-4.90664 6.41344,0.51586 8.42816,0.30055 1.87094,-0.19992 4.32332,-2.68602 5.76,-3.82547 -6.47754,-9.71133 -27.92402,-5.68922 -23.3264,8 1.67019,4.97289 6.758,5.70446 10.8464,7.79977 1.45297,0.74461 3.45192,2.12883 2.66664,4.0264 -1.18144,2.85485 -5.48586,2.12829 -7.46195,0.71782 -0.76,-0.54243 -1.59547,-1.88485 -2.59332,-1.93039 -1.74469,-0.0797 -4.27238,2.87781 -5.73137,3.7864 m 136.64,-5.76 h -0.32 c -1.36437,1.63969 -3.00094,3.11781 -5.12,3.67438 -1.73461,0.45562 -3.39,0.48164 -5.12,0.009 -1.43383,-0.39188 -2.74609,-1.09165 -3.82719,-2.1168 -9.33414,-8.85125 6.28453,-22.17438 13.74719,-11.80641 l 7.04,-4.48 c -2.93602,-7.57805 -15.14289,-8.74484 -21.76,-6.37109 -9.66976,3.46875 -13.66445,14.44062 -9.63976,23.65109 3.6839,8.43047 14.18101,11.16391 22.43976,8.82297 2.38117,-0.67492 8.6468,-3.07461 8.54203,-6.23312 -0.0596,-1.79571 -4.685,-4.04368 -5.98203,-5.14985 m 189.75998,-13.76 6.4,2.88 c 1.1044,-1.61226 2.369,-3.19789 4.48,-3.38469 2.8272,-0.25015 4.6171,2.8811 3.6434,5.30469 -3.237,8.05719 -14.2034,11.09321 -14.2034,20.48 h 16.96 c 1.8845,0 5.2302,0.64742 6.9383,-0.19312 1.2769,-0.62836 1.2768,-6.66547 0,-7.29375 -2.4727,-1.2168 -7.702,-0.19313 -10.4583,-0.19313 2.9917,-2.27929 6.2044,-5.16351 8.2867,-8.32 1.0519,-1.59461 1.847,-3.51836 1.9405,-5.44 0.1708,-3.51 -0.4482,-7.00648 -3.217,-9.45031 -6.2658,-5.53039 -18.7472,-2.90305 -20.7702,5.61031 m -286.07998,-7.68 v 32.96 h 8.64 v -32.96 h -8.64 m 25.28,0 v 32.96 h 8.64 v -15.68 l 10.88469,11.52 4.16789,3.96688 5.42742,0.19312 v -32.96 h -8.64 v 16 l -9.46422,-10.24 -5.25703,-5.43109 -5.75875,-0.32891 m 115.83998,24.96 h -14.72 v -4.8 h 9.28 l 3.5111,-0.51312 0.3289,-7.16688 h -13.12 v -4.48 h 14.72 c 0,-1.6007 0.8215,-6.61398 -0.5131,-7.67109 -1.0391,-0.82297 -3.6695,-0.32891 -4.9269,-0.32891 h -12.8 c -1.2116,0 -4.2697,-0.54922 -5.1111,0.51313 -1.1878,1.49968 -0.3289,6.25632 -0.3289,8.12687 0,7.44227 -0.3217,14.9643 0.01,22.39852 0.1443,3.2725 8.0829,1.92148 10.5538,1.92148 h 9.28 c 0.9539,0 2.8328,0.34336 3.5111,-0.51312 1.1207,-1.41485 0.3289,-5.7236 0.3289,-7.48688 m 29.12,-17.6 2.88,6.4 5.44,-2.56 v 21.76 h 8.64 v -32.96 c -6.4006,0 -11.4376,4.45109 -16.96,7.36 m 33.92,-7.36 v 7.68 h 14.72 l -12.48,25.28 c 2.3799,0 7.4464,0.96524 9.4751,-0.3289 2.0832,-1.32891 3.4363,-6.1318 4.526,-8.3111 3.9792,-7.95851 9.0389,-15.29547 9.0389,-24.32 h -25.28 m 40.64,0 v 7.68 h 14.72 l -12.48,25.28 c 2.38,0 7.4464,0.96524 9.4751,-0.3289 2.0832,-1.32891 3.4363,-6.1318 4.526,-8.3111 3.9709,-7.9418 9.0389,-15.29969 9.0389,-24.32 h -25.28 m 262.07987,59.65579 c -16.7046,2.19414 -32.0631,6.10265 -45.12,17.55582 -30.0591,26.36715 -30.8949,77.55309 -1.6,104.83978 16.5628,15.4274 40.2994,21.2473 62.4,18.4975 11.4742,-1.4276 22.6154,-5.1922 32.32,-11.539 32.0164,-20.93879 39.5303,-68.22672 18.2309,-99.40988 -10.2319,-14.97985 -26.4737,-24.90133 -44.1509,-28.4161 -7.011,-1.39398 -14.9411,-2.46578 -22.08,-1.52812 m -188.79987,93.30422 h -0.32 c -4.95,6.24117 -9.2638,13.0393 -13.8948,19.52 -1.053,1.47359 -4.6812,5.14453 -4.2022,7.04 0.5087,2.01318 3.7552,3.84098 5.297,5.05258 5.7814,4.543 12.3563,8.0454 19.2,10.6879 5.45337,2.1056 11.20388,3.4917 16.95998,4.4452 22.8349,3.7826 52.0652,2.1026 67.5152,-17.6257 11.62719,-14.84678 11.83799,-39.90619 -2.8753,-52.7074 -9.9987,-8.69934 -23.5466,-12.07055 -36.16,-14.92442 -7.8068,-1.76637 -16.3704,-2.49668 -23.6799,-5.93285 -3.481,-1.63641 -6.8858,-4.81645 -6.3036,-8.99531 0.8433,-6.05344 6.6249,-8.6768 12.0636,-9.32965 10.9854,-1.31864 22.2679,2.13203 31.9999,7.01062 2.5736,1.29012 5.0056,2.81403 7.36,4.46965 0.8375,0.58895 2.0771,1.97727 3.1711,1.94789 1.7413,-0.0468 4.2632,-4.72422 5.2605,-6.01851 4.7487,-6.16317 9.1967,-12.67614 14.2884,-18.56 -4.9743,-6.14946 -14.2517,-10.25329 -21.44,-13.12001 -4.6482,-1.85375 -9.4943,-3.3007 -14.4,-4.28789 -26.1586,-5.26398 -62.75398,-0.72257 -72.53318,28.6079 -1.526,4.57691 -2.4324,9.88675 -1.9724,14.72 0.4543,4.77215 1.23,9.36359 3.2445,13.76 7.662,16.72164 27.92208,21.9993 44.38118,25.34371 6.5745,1.33594 13.1579,2.56137 19.5199,4.73727 3.4788,1.18976 7.3918,3.10296 9.2943,6.39902 5.5673,9.64492 -8.5198,15.64363 -16.0143,15.67977 -17.2535,0.0832 -33.38401,-5.54543 -45.75988,-17.91977 M 313.21496,205.54306 v 136.95996 h 35.2 V 205.54306 h -35.2 m 72.32,0 v 136.95996 h 90.23999 V 311.78307 H 420.73496 V 205.54306 h -35.2 m 120.95999,0 v 136.95996 h 35.2 v -27.19995 c 0,-3.69981 -0.96226,-8.95875 0.18047,-12.48 1.15031,-3.54465 6.42821,-9.3684 9.41953,-11.52 1.86172,4.4259 5.65664,8.54711 8.40961,12.48 5.88664,8.40973 11.87133,16.77297 17.6161,25.27995 2.18398,3.2342 4.46609,6.403 6.7039,9.6 0.83914,1.1988 1.70422,3.0759 3.1393,3.647 3.32992,1.3249 9.1864,0.193 12.77109,0.193 h 30.08 c -3.43023,-6.7192 -9.62797,-12.92 -14.26422,-18.87995 -9.08414,-11.67789 -18.12398,-23.40637 -27.05726,-35.2 -3.41102,-4.50317 -6.8657,-8.98102 -10.3343,-13.44 -0.9914,-1.27449 -3.70711,-3.71301 -3.56914,-5.44 0.13149,-1.64571 2.51297,-3.57434 3.50938,-4.8 3.40984,-4.19446 6.89593,-8.32723 10.35656,-12.48 8.51844,-10.22211 16.97914,-20.49262 25.49133,-30.72001 4.25429,-5.11148 9.66328,-10.24168 12.98765,-16 h -30.4 c -3.53437,0 -9.47953,-1.15515 -12.74445,0.19313 -1.56375,0.64578 -2.71734,2.98328 -3.69508,4.28687 l -7.68,10.24 c -6.87078,9.16106 -13.73367,18.32809 -20.56195,27.52001 -3.27848,4.41332 -7.58762,8.83859 -10.03852,13.76 h -0.32 v -56.00001 h -35.2 m 146.56,0 v 136.95996 h 35.2 V 205.54306 h -35.2 m 71.99998,0 v 136.95996 h 35.52 v -82.23995 h 0.32 l 14.5842,21.12 26.88,38.4 11.1516,15.99995 4.7684,6.3912 9.4958,0.3288 h 24.64 V 205.54306 h -35.52 v 78.40001 c -5.2896,-6.20215 -9.6351,-13.48141 -14.3104,-20.16 -8.4537,-12.07618 -17.0054,-24.08379 -25.4592,-36.16 -3.5873,-5.12442 -7.2212,-10.21747 -10.7825,-15.36001 -1.2942,-1.8689 -2.8594,-5.25039 -4.8669,-6.39109 -2.3329,-1.32562 -7.5247,-0.32891 -10.181,-0.32891 h -26.24 m 470.71987,0 v 136.95996 h 35.2 v -82.55995 h 0.32 c 2.5953,6.74601 8.9914,13.24918 13.1122,19.2 9.781,14.12476 19.685,28.16492 29.5375,42.24 3.583,5.11845 7.1206,10.27085 10.7452,15.35995 1.1084,1.5564 2.5133,4.7724 4.3093,5.567 2.4747,1.0947 7.1169,0.193 9.8158,0.193 h 24 V 205.54306 h -35.52 v 78.40001 l -39.6722,-56.32 -11.2528,-16.00001 -4.5392,-5.88687 -10.4558,-0.19313 h -25.6 m -1101.119838,0.32 c 2.71625,11.84813 6.836998,23.55641 10.329628,35.20001 6.39045,21.30418 12.48951,42.6957 18.88,64 2.71471,9.05016 5.39346,18.11922 8.00346,27.19995 0.7949,2.7657 1.38291,8.6112 3.38025,10.687 1.00676,1.0462 3.83731,0.513 5.16666,0.513 h 14.4 12.48 c 1.30344,0 3.83881,0.4808 4.93975,-0.3288 1.12222,-0.8253 1.37459,-3.5185 1.73531,-4.7912 l 3.75012,-13.12 c 4.82457,-16.92171 10.96974,-33.9737 14.53482,-51.19995 h 0.32 l 5.84963,20.16 14.63037,49.27995 h 34.56 c 1.71441,-11.6522 6.79887,-23.56761 10.10418,-34.87995 6.60848,-22.61746 13.11652,-45.27035 19.88621,-67.84 2.3632,-7.87872 4.63848,-15.78454 6.94543,-23.68001 1.05461,-3.60937 2.73687,-7.44648 3.06418,-11.2 h -36.8 c -6.05266,26.40141 -15.32418,52.33735 -22.72,78.40001 h -0.32 c -0.52889,-6.06488 -3.28244,-12.35477 -4.83703,-18.24 -3.55873,-13.47243 -7.31807,-26.91356 -11.11803,-40.32 -1.35793,-4.79086 -2.60418,-9.61364 -3.97803,-14.40001 -0.37714,-1.31398 -0.62121,-4.24109 -1.73976,-5.11109 -1.65664,-1.28844 -6.9809,-0.32891 -9.04715,-0.32891 h -25.28 c 1.0761,3.82032 1.95317,7.69622 3.0158,11.52 0.53295,1.91774 1.55119,4.25489 1.47014,6.26418 -0.23582,5.84555 -3.84625,12.76813 -5.53557,18.37583 -4.79172,15.90613 -10.88738,31.82113 -14.63037,48 h -0.32 l -4.98517,-17.92 -12.84174,-44.48 -6.17309,-21.76001 H 94.654962 m 992.959838,28.89137 c 4.8366,-0.57843 10.3467,-0.28633 15.04,1.00469 27.091,7.45207 35.2268,44.24828 18.0914,65.14395 -6.1997,7.56 -14.9353,11.5773 -24.4914,12.70863 -4.4522,0.52707 -9.0857,-0.003 -13.44,-0.93605 -26.4697,-5.66961 -34.5808,-39.79582 -21.935,-61.05258 5.765,-9.69036 15.6674,-15.54497 26.735,-16.86864 M 721.85493,380.71892 c -8.1374,1.0689 -15.9762,2.8029 -22.72,7.8308 -20.2274,15.0807 -21.27873,46.6243 -2.56,63.3378 9.3895,8.3836 23.0002,11.082 35.2,9.564 5.7588,-0.7166 11.691,-2.6349 16.64,-5.6892 20.8915,-12.8928 25.0045,-43.8171 8.5855,-62.0593 -5.7188,-6.3537 -13.7028,-10.4386 -22.0255,-12.096 -4.2173,-0.8398 -8.8264,-1.4521 -13.12,-0.8881 m -233.59998,68.3442 v 0.32 c 11.88649,11.6409 30.57262,14.5918 46.4,11.2627 13.48352,-2.8361 22.84684,-14.2222 21.02742,-28.2227 -1.89054,-14.5478 -17.61855,-18.3379 -29.66742,-20.9085 -4.22531,-0.9014 -10.81254,-1.2651 -13.62121,-5.0165 -3.38136,-4.5162 3.09785,-8.2157 6.90121,-8.3104 8.39477,-0.2088 16.91407,2.5013 23.36,7.9953 3.3934,-2.603 5.83289,-7.1882 8.45582,-10.56 0.75262,-0.9675 2.76391,-2.7545 2.32614,-4.131 -0.37668,-1.1845 -2.13797,-2.0477 -3.10196,-2.6944 -3.09054,-2.0733 -6.39265,-3.8074 -9.92,-5.0136 -13.36468,-4.57 -32.07714,-5.2167 -42.87875,5.4437 -8.13386,8.0275 -9.69136,23.1893 -0.63656,31.2628 5.99555,5.3458 14.40762,7.2632 22.07531,8.7965 4.36207,0.8723 9.28438,1.5335 13.11977,3.9257 1.78344,1.1124 3.50422,3.0282 3.02519,5.2904 -0.75585,3.5695 -4.60921,5.1673 -7.82496,5.7331 -6.92632,1.2184 -14.81293,-0.9522 -20.8,-4.4569 -1.7841,-1.0444 -5.40082,-5.0534 -7.33011,-5.0501 -1.27532,0 -2.45434,2.5573 -3.09504,3.4539 -2.57871,3.6088 -4.93805,7.5048 -7.81485,10.88 m 295.99998,-67.2001 v 56.0001 15.68 c 0,1.7268 -0.5789,4.7292 0.1931,6.2982 0.6023,1.2239 3.1761,0.7418 4.2869,0.7418 h 11.52 c 1.061,0 3.4024,0.4322 4.1511,-0.5132 1.0807,-1.3644 0.3289,-5.4779 0.3289,-7.1668 v -19.2 c 2.5476,0 7.6356,-0.9787 9.8519,0.3289 1.8256,1.077 2.6565,4.5674 3.518,6.3911 2.2389,4.7398 4.6868,9.3912 7.0311,14.08 0.7989,1.5978 1.6688,4.7079 3.1629,5.751 1.3555,0.9465 4.5972,0.329 6.1961,0.329 h 16.64 l -4.2338,-8.32 -11.4462,-20.8 c 19.3139,-5.2821 20.1142,-34.5626 5.12,-44.7909 -7.3224,-4.995 -15.8367,-4.8092 -24.32,-4.8092 h -32 m 85.12,0 v 78.7201 c 18.7256,0 41.98527,3.6171 58.55998,-6.9425 22.962,-14.629 22.4335,-53.4876 -2.24,-66.2548 -16.74598,-8.6652 -38.07388,-5.5228 -56.31998,-5.5228 m -303.67998,0.32 c 0.66117,7.5729 4.45008,15.7362 6.58422,23.04 5.42633,18.5708 12.13391,37.1469 16.45578,56.0001 h 15.36 c 1.49922,0 4.645,0.5939 5.89977,-0.329 1.91961,-1.4115 2.54922,-7.6459 3.19508,-9.911 l 5.58023,-19.52 c 0.90906,-3.2074 2.31477,-6.5941 2.60492,-9.92 h 0.32 c 2.76203,9.7327 5.67438,19.4497 8.64789,29.12 0.72821,2.3682 1.42844,8.7323 3.41703,10.231 1.17672,0.8869 4.12352,0.329 5.53508,0.329 h 14.08 l 4.98422,-17.28 18.05578,-61.7601 h -15.04 l -5.89976,0.3289 -1.27508,3.1911 -2.51828,8.64 -9.50688,32.6401 -5.16844,-18.2401 -7.31156,-26.56 h -19.84 l 2.44539,10.24 -3.39726,11.52 -8.00813,26.5601 h -0.32 l -3.70515,-13.44 -10.05485,-34.8801 h -21.12 m -103.03999,0.96 c -16.27508,9.4992 -34.02747,16.9328 -50.88,25.3591 l -14.08,7.04 c -1.57735,0.7886 -3.96778,2.6175 -5.76,2.6235 -1.3391,0 -2.55379,-1.4672 -3.52,-2.2388 -2.2545,-1.8006 -4.61442,-3.4808 -7.04,-5.0423 -8.51711,-5.483 -17.78664,-9.8978 -27.2,-13.5965 -32.18453,-12.6461 -68.4327,-12.41 -99.84,2.4249 -21.8118,10.3026 -38.89613,27.8366 -46.50543,50.9502 -3.11775,9.4703 -4.309,19.235 -4.98594,29.12 -0.45365,6.6243 0.16625,13.5951 1.02149,20.16 0.4134,3.1732 1.77808,7.0656 1.53136,10.235 -0.12791,1.6434 -2.38187,2.592 -3.54148,3.4892 -2.32965,1.8023 -4.20092,4.1239 -5.51703,6.7558 -6.11678,12.2318 1.91768,28.1381 15.43703,30.5713 6.85551,1.2339 12.65643,-1.9406 18.56,-4.8924 l 25.6,-12.7999 c 23.66031,-11.8301 47.38262,-23.5294 71.04,-35.3581 l 23.04,-11.52 c 4.32883,-2.1644 8.77535,-4.9777 13.44,-6.3209 0.26433,6.1389 1.88484,13.6268 6.17258,18.2114 8.9971,9.6196 26.13789,7.5629 35.42742,-0.3875 12.47933,-10.6804 13.81097,-28.7644 9.6,-43.7439 11.8875,-4.9491 23.3598,-11.441 34.88,-17.201 l 9.28,-4.6381 c 1.15929,-0.5796 3.10527,-1.148 3.83113,-2.2859 1.54312,-2.4191 0.32887,-8.8567 0.32887,-11.715 l -13.76,6.6409 -26.56,13.2781 -11.84,5.681 c -1.14325,-3.9686 -4.04278,-8.1058 -6.72,-11.2 14.48046,-6.0286 28.52531,-14.0236 42.56,-21.041 l 11.52,-5.76 c 1.29234,-0.6462 3.6207,-1.3048 4.47113,-2.523 0.79597,-1.1401 0.32887,-3.5858 0.32887,-4.9161 0,-4.3247 1.34605,-11.3896 -0.32,-15.36 m 510.71985,0 v 14.72 l 0.3289,5.5561 4.4711,2.523 10.88,5.44 27.83999,13.76 15.04,7.281 -6.4,11.52 -15.68,-7.601 -36.47999,-17.999 c 0,2.8584 -1.2143,9.2957 0.3289,11.715 0.6799,1.0658 2.4279,1.5824 3.5111,2.124 l 8.96,4.48 23.03999,11.52 c 4.0021,2.001 8.1784,4.7618 12.48,6.001 -4.9822,13.2068 -2.8467,32.6936 8.0126,42.4229 10.2512,9.1844 28.7259,12.2085 38.2217,0.1371 3.4234,-4.3519 4.5352,-11.2303 4.9657,-16.64 3.4678,0.9989 6.6459,3.1978 9.92,4.7012 8.9692,4.1183 17.7312,8.7253 26.56,13.1397 23.6614,11.8308 47.3789,23.5275 71.04,35.3581 l 25.6,12.7999 c 5.9157,2.9579 11.6854,6.1297 18.56,4.8924 13.7013,-2.466 21.4486,-18.6584 15.2405,-30.8913 -1.3758,-2.711 -3.5748,-5.0263 -5.9605,-6.8756 -1.06,-0.8216 -3.0126,-1.4999 -3.0122,-3.0583 0,-3.6365 1.2891,-7.5447 1.6791,-11.1861 0.832,-7.7694 1.1984,-15.5633 0.6645,-23.36 -2.2604,-33.0082 -20.3952,-61.7568 -50.8514,-75.7413 -32.2431,-14.805 -67.7917,-15.1843 -100.8,-2.3992 -9.4629,3.6653 -18.6122,8.3639 -27.2,13.76 -2.3329,1.4658 -4.5936,3.1362 -6.72,4.8873 -0.8736,0.7196 -1.979,2.0207 -3.2,2.0321 -1.6033,0.015 -3.7147,-1.5972 -5.12,-2.2999 -4.2575,-2.1287 -8.4742,-4.3941 -12.8,-6.3803 -17.9057,-8.2217 -34.93719,-18.7688 -53.11999,-26.3388 m -651.73665,14.9672 c 1.58082,-0.5744 4.68434,0.5825 6.2968,0.905 5.38582,1.0771 10.78324,2.342 16,4.0746 22.94539,7.6204 46.26617,22.5956 56.13484,45.6533 3.76516,8.797 6.84129,19.8928 4.29551,29.44 -0.8991,3.3717 -2.64617,8.2296 -6.35035,9.391 -1.52473,0.4781 -4.19567,0.4747 -4.69828,-1.4051 -0.90465,-3.3835 0.63207,-8.2967 0.71261,-11.8259 0.14086,-6.1707 -1.4366,-12.4325 -3.37433,-18.24 -7.85039,-23.5283 -29.28285,-38.5776 -50.56,-49.038 -4.93227,-2.4249 -10.14844,-4.4781 -15.36,-6.2153 -0.48903,-0.1631 -5.48164,-1.8731 -3.0968,-2.7396 m 792.80904,-0.054 c 2.8593,0.4185 -2.3414,2.5624 -2.8324,2.7484 -4.958,1.8777 -9.9247,3.6568 -14.72,5.9368 -20.8917,9.9334 -40.4143,24.0644 -49.9644,45.8417 -2.7773,6.333 -4.6719,13.8613 -4.7543,20.8 -0.047,3.9445 1.0908,7.9366 0.94,11.8388 -0.084,2.1701 -1.9134,2.7072 -3.8213,2.5274 -4.5576,-0.4296 -6.6961,-6.4174 -7.5439,-10.2062 -2.3751,-10.6151 1.2814,-22.5828 6.0232,-32 10.8196,-21.4881 32.7921,-35.2431 54.9607,-42.5598 5.018,-1.6561 10.1828,-2.8689 15.36,-3.9041 1.872,-0.3744 4.4474,-1.3019 6.3524,-1.023 m -391.63227,0.5385 c 22.7874,-2.7988 32.6115,30.2348 14.08,42.1195 -2.83,1.815 -5.9663,2.7303 -9.28,3.1373 -22.5799,2.7733 -32.9167,-29.9318 -14.4,-41.9246 2.9406,-1.9047 6.1411,-2.9074 9.6,-3.3322 m 81.92,18.1484 v -17.6 h 13.12 c 2.454,0 5.0627,-0.2841 7.36,0.7526 6.4827,2.9251 6.8753,12.078 0.64,15.5082 -5.5847,3.0722 -14.9269,1.3392 -21.12,1.3392 m 84.8,25.92 v -43.2 c 7.7971,0 17.2269,-1.2585 24.31997,2.7008 12.89531,7.198 13.58531,28.1761 1.60001,36.6454 -7.51408,5.3097 -17.22828,3.8538 -25.91998,3.8538 m -605.11997,-30.9486 c 23.35472,-2.7557 45.74621,10.3335 59.1516,28.7086 3.61027,4.9487 6.8425,10.1913 9.56914,15.68 0.63965,1.2876 2.77102,4.5184 1.44047,5.841 -0.87727,0.872 -2.13281,0.1518 -2.86985,-0.5111 -2.24621,-2.0204 -4.03769,-4.5036 -6.49136,-6.3141 -6.71313,-4.9533 -16.33684,-8.0734 -24.64,-6.3084 -2.12063,0.4508 -6.17754,1.2155 -7.42367,3.2007 -1.1111,1.7702 2.18925,3.4283 3.26242,4.3334 3.50492,2.9562 6.09554,7.1332 7.15187,11.5985 0.28301,1.1963 1.09321,3.5964 0.0163,4.6008 -1.00578,0.938 -2.18418,-0.3613 -2.81012,-1.087 -2.25523,-2.6144 -4.5064,-5.3119 -7.23679,-7.4597 -7.0691,-5.561 -18.74942,-6.7461 -26.56,-2.0519 -1.22305,0.7352 -3.69692,2.3215 -3.28074,4.064 0.3848,1.6112 3.29312,2.6187 4.56074,3.4353 3.1032,1.999 5.8773,4.3042 7.85949,7.4585 0.87738,1.3963 4.28613,7.4613 1.69309,8.5143 -1.18188,0.4799 -2.38766,-0.768 -3.15258,-1.4881 -2.42735,-2.2852 -4.80051,-4.5605 -7.68,-6.2872 -7.90262,-4.7388 -23.28008,-7.2538 -30.68641,-0.04 -0.95843,0.9336 -1.76914,2.1862 -0.84101,3.4262 1.18679,1.5856 3.65703,1.9366 5.28742,2.9366 3.1898,1.9563 5.67969,4.6756 7.42984,7.978 0.67414,1.272 3.74926,6.6015 1.45582,7.4728 -1.17441,0.4462 -2.27429,-0.6385 -2.98984,-1.4067 -1.97332,-2.1184 -4.17887,-3.925 -6.53582,-5.6093 -6.35805,-4.5437 -13.86805,-7.5576 -21.76,-5.6806 -8.37914,1.993 -8.96,9.2483 -8.96,16.4238 0,1.7741 0.99,8.7911 -1.62963,9.0681 -1.3192,0.1395 -1.94178,-1.3466 -2.30666,-2.3484 -1.00318,-2.7541 -1.5633,-5.7583 -2.06371,-8.6397 -2.08898,-12.0285 -1.38121,-24.8761 1.00789,-36.8 3.85059,-19.2181 14.71994,-37.1226 32.83211,-45.8292 8.59441,-4.1313 17.82582,-5.7734 27.2,-6.8794 m 857.27983,0 c 18.1012,-2.1358 40.0704,4.6889 52.7875,17.8298 9.3042,9.6144 14.8789,22.1948 17.4846,35.1988 2.3705,11.8298 2.8434,24.2212 1,36.16 -0.3725,2.4123 -1.1306,10.6489 -4.0642,11.2538 -2.8394,0.5855 -1.9279,-7.172 -1.9279,-8.6938 0,-8.5924 -1.75,-16.2492 -11.84,-17.2257 -7.972,-0.7715 -15.0255,3.0108 -21.12,7.7615 -1.4309,1.1154 -5.6648,6.4736 -7.577,5.2892 -1.9584,-1.2132 1.2073,-6.6527 2.0141,-7.985 1.7454,-2.8827 3.9382,-5.4523 6.8429,-7.2114 1.7596,-1.0655 5.0697,-1.5196 5.9181,-3.6193 0.9453,-2.3396 -3.3256,-4.5085 -4.9581,-5.1476 -9.7226,-3.8059 -21.5316,-2.1102 -29.76,4.2744 -2.047,1.5882 -3.7159,3.6132 -5.76,5.1775 -0.7622,0.5832 -2.0836,1.3423 -2.8225,0.3026 -1.0542,-1.4832 0.3578,-4.5159 1.0025,-5.9362 1.7497,-3.8542 4.8021,-6.7447 8.22,-9.1397 1.4358,-1.0061 4.6803,-2.0308 5.3964,-3.6939 0.6078,-1.4121 -1.2422,-2.9295 -2.1966,-3.6815 -7.1034,-5.5974 -19.9198,-4.3237 -26.8798,0.8109 -2.9204,2.1545 -5.365,4.93 -7.68,7.6993 -0.6244,0.747 -1.9095,2.3889 -3.0068,1.3977 -1.0825,-0.9778 -0.3224,-3.4071 -0.057,-4.5928 0.9807,-4.383 3.4737,-8.4709 6.9042,-11.3796 1.1439,-0.9698 4.6963,-2.7397 3.3832,-4.5871 -1.461,-2.0552 -5.2311,-2.7636 -7.5435,-3.2321 -8.1197,-1.6451 -17.3581,1.4305 -24,6.0924 -2.6044,1.8281 -4.4183,4.241 -6.7212,6.3676 -0.7426,0.6858 -2.0338,1.7446 -3.0044,0.7842 -1.2968,-1.2831 0.5552,-4.0258 1.1646,-5.2454 2.3249,-4.6525 4.82,-9.1605 7.7887,-13.44 12.4258,-17.9128 29.3601,-29.0339 51.0123,-31.5886 z"
       id="path2" /></g></svg>
